<?xml version="1.0" encoding="UTF-8" standalone="no"?>
<!DOCTYPE svg PUBLIC "-//W3C//DTD SVG 1.1//EN" "http://www.w3.org/Graphics/SVG/1.1/DTD/svg11.dtd">
<svg width="100%" height="100%" viewBox="0 0 480 320" version="1.1" xmlns="http://www.w3.org/2000/svg" xmlns:xlink="http://www.w3.org/1999/xlink" xml:space="preserve" xmlns:serif="http://www.serif.com/" style="fill-rule:evenodd;clip-rule:evenodd;stroke-linecap:round;stroke-linejoin:round;stroke-miterlimit:1.5;">
    <g transform="matrix(0.303359,0,0,0.303359,-76.4356,-172.363)">
        <circle cx="1042.46" cy="736.603" r="47.55" style="fill:none;stroke:rgb(255,0,0);stroke-width:11.67px;"/>
    </g>
    <g transform="matrix(0.303359,0,0,0.303359,-61.8165,-164.263)">
        <path d="M899.814,842.866L1070.12,1102.16L919.714,1102.16L1090.02,842.866L899.814,842.866Z" style="fill:none;stroke:rgb(255,0,0);stroke-width:11.67px;"/>
    </g>
    <g transform="matrix(0.303359,0,0,0.303359,-67.8532,-164.263)">
        <path d="M879.915,1136.8L879.915,986.272L919.714,842.866" style="fill:none;stroke:rgb(255,0,0);stroke-width:11.67px;"/>
    </g>
    <g transform="matrix(-0.303359,0,0,0.303359,547.853,-164.263)">
        <path d="M879.915,1136.8L879.915,986.272L919.714,842.866" style="fill:none;stroke:rgb(255,0,0);stroke-width:11.67px;"/>
    </g>
    <g transform="matrix(0.303359,0,0,0.356008,-61.8165,-208.64)">
        <path d="M994.915,842.866L994.915,689.053" style="fill:none;stroke:rgb(255,0,0);stroke-width:10.71px;"/>
    </g>
    <g transform="matrix(0.303359,0,0,0.303359,-61.8165,-164.263)">
        <path d="M919.714,1102.16L955.517,1303.46L973.734,1516.85" style="fill:none;stroke:rgb(255,0,0);stroke-width:11.67px;"/>
    </g>
    <g transform="matrix(-0.303359,0,0,0.303359,541.817,-164.263)">
        <path d="M919.714,1102.16L955.517,1303.46L973.734,1516.85" style="fill:none;stroke:rgb(255,0,0);stroke-width:11.67px;"/>
    </g>
</svg>
